<svg width="25" height="24" viewBox="0 0 25 24" fill="none" xmlns="http://www.w3.org/2000/svg">
<path d="M19.9727 21H8.97266V7H19.9727V21ZM19.9727 5H8.97266C8.44222 5 7.93352 5.21071 7.55844 5.58579C7.18337 5.96086 6.97266 6.46957 6.97266 7V21C6.97266 21.5304 7.18337 22.0391 7.55844 22.4142C7.93352 22.7893 8.44222 23 8.97266 23H19.9727C20.5031 23 21.0118 22.7893 21.3869 22.4142C21.7619 22.0391 21.9727 21.5304 21.9727 21V7C21.9727 6.46957 21.7619 5.96086 21.3869 5.58579C21.0118 5.21071 20.5031 5 19.9727 5ZM16.9727 1H4.97266C4.44222 1 3.93352 1.21071 3.55844 1.58579C3.18337 1.96086 2.97266 2.46957 2.97266 3V17H4.97266V3H16.9727V1Z" fill="white"/>
</svg>
