<svg width="26" height="24" viewBox="0 0 26 24" fill="none" xmlns="http://www.w3.org/2000/svg">
    <path d="M12.6683 0.0710206C13.2345 -0.224174 13.9255 0.460631 13.6247 1.02622C13.45 1.48726 12.7877 1.60985 12.4494 1.25842C12.0909 0.921151 12.2078 0.254527 12.6683 0.0710206ZM6.57938 0.727385C6.92328 0.585826 7.3586 0.900891 7.32354 1.2757C7.36003 1.68258 6.8625 1.98206 6.51198 1.78868C6.04756 1.60881 6.10068 0.854917 6.57938 0.727385ZM19.0503 1.80011C18.5129 1.73518 18.4278 0.890242 18.9452 0.720112C19.3465 0.524398 19.7147 0.891411 19.7734 1.2718C19.6893 1.59661 19.4173 1.89401 19.0503 1.80011ZM7.96484 3.31894C8.53977 2.95531 9.36016 3.49687 9.27172 4.16466C9.24185 4.83895 8.34627 5.2296 7.84094 4.77375C7.35237 4.4157 7.42639 3.59427 7.96484 3.31894ZM16.7416 3.70479C16.9981 3.04375 18.0374 3.02375 18.3294 3.66726C18.618 4.16804 18.263 4.78817 17.7489 4.95843C17.0678 5.08557 16.4209 4.34934 16.7416 3.70479ZM11.9351 4.92089C11.9295 4.35271 12.447 3.92934 12.987 3.89063C13.3452 3.96245 13.7356 4.11505 13.8893 4.47648C14.1756 4.97505 13.9213 5.66154 13.4039 5.89038C13.1673 6.02297 12.8876 5.97323 12.6299 5.95778C12.236 5.7644 11.9043 5.38518 11.9351 4.92089ZM2.8799 5.74882C3.40509 5.42596 4.11366 6.01518 3.91483 6.5857C3.80535 7.07921 3.14198 7.27999 2.76275 6.96492C2.35795 6.66973 2.42211 5.95999 2.8799 5.74882ZM22.3247 5.74778C22.7703 5.4018 23.5056 5.79869 23.4525 6.36128C23.4824 6.87427 22.8467 7.26116 22.4043 6.997C21.9172 6.77804 21.8674 6.02856 22.3247 5.74778ZM14.4816 6.76921C15.2169 6.50505 16.0903 6.82116 16.5094 7.47674C17.0622 8.27817 16.7681 9.49869 15.9102 9.95856C15.0212 10.5025 13.7232 10.0414 13.3948 9.04869C13.0221 8.15999 13.5651 7.04778 14.4816 6.76921ZM10.1673 6.85661C10.9822 6.47193 12.079 6.79466 12.4726 7.6283C12.9359 8.43973 12.5777 9.5696 11.7495 9.98856C10.9203 10.4595 9.75042 10.1025 9.34912 9.23129C8.89912 8.38882 9.29873 7.24453 10.1673 6.85661ZM5.84743 8.33349C5.90938 7.80843 6.40471 7.46674 6.90445 7.43142C7.44289 7.49635 7.87302 7.91453 7.93159 8.45947C7.89627 8.99895 7.47938 9.52622 6.90769 9.52298C6.27873 9.57713 5.7273 8.95142 5.84743 8.33349ZM18.6069 7.54557C19.2526 7.16973 20.1493 7.71687 20.1206 8.45869C20.1648 9.24466 19.1725 9.79856 18.5295 9.33752C17.8616 8.95362 17.9137 7.87246 18.6069 7.54557ZM8.41159 10.3157C9.16679 10.1079 10.0303 10.4639 10.4007 11.158C10.8064 11.8567 10.6406 12.8274 10.0104 13.3399C9.20224 14.0915 7.71172 13.7897 7.28159 12.7639C6.7873 11.8235 7.38769 10.5632 8.41159 10.3157ZM16.5946 10.3118C17.3287 10.1018 18.1912 10.3848 18.5859 11.0536C19.1077 11.8186 18.8586 12.9595 18.0817 13.4526C17.268 14.0252 16.0074 13.7245 15.5596 12.8292C15.0168 11.9031 15.563 10.5943 16.5946 10.3118ZM3.55431 11.1845C4.20665 10.9378 4.92977 11.6577 4.66548 12.3044C4.50405 12.8936 3.67366 13.1114 3.2447 12.677C2.74275 12.2691 2.9286 11.3614 3.55431 11.1845ZM21.2361 12.1231C21.2173 11.5826 21.6128 11.1039 22.1671 11.074C22.6138 11.1448 23.0482 11.5052 23.0129 11.9915C23.0538 12.6339 22.2798 13.0705 21.7325 12.7687C21.476 12.6383 21.3445 12.3752 21.2361 12.1231ZM0.346779 11.5018C0.739247 11.3305 1.2247 11.6706 1.13509 12.1065C1.11405 12.6 0.38548 12.7897 0.117817 12.3774C-0.118676 12.091 0.0228823 11.6495 0.346779 11.5018ZM25.0926 11.4919C25.369 11.2952 25.8124 11.4366 25.9219 11.7595C26.1076 12.1121 25.7671 12.5952 25.3702 12.5356C24.813 12.5864 24.6328 11.7373 25.0926 11.4919ZM10.5433 13.8609C11.576 13.5923 12.6861 14.4535 12.6926 15.5169C12.76 16.5914 11.6667 17.5443 10.6095 17.2961C9.79237 17.1645 9.1512 16.3774 9.1777 15.5517C9.17549 14.7619 9.77146 14.0279 10.5433 13.8609ZM14.6332 13.8587C15.6813 13.5657 16.8246 14.4423 16.808 15.5303C16.8633 16.5849 15.8041 17.5057 14.769 17.2965C13.795 17.1705 13.0763 16.1004 13.3482 15.1552C13.4855 14.5253 14.0117 14.0131 14.6332 13.8587ZM6.74756 14.5132C7.47289 14.3895 8.15289 15.1987 7.85873 15.8874C7.64419 16.6213 6.57613 16.8204 6.10393 16.2209C5.55003 15.6452 5.96354 14.5927 6.74756 14.5132ZM18.7417 14.5456C19.3885 14.2747 20.1824 14.8341 20.1326 15.5361C20.1586 16.3088 19.1785 16.8417 18.546 16.3906C17.8297 15.9857 17.96 14.794 18.7417 14.5456ZM22.0942 17.9082C21.841 17.4361 22.301 16.8104 22.8251 16.8978C23.086 16.8934 23.2685 17.099 23.4355 17.2714C23.4698 17.5512 23.5273 17.8849 23.2951 18.1005C22.9798 18.4996 22.2655 18.3857 22.0942 17.9082ZM2.87769 17.0292C3.36756 16.7031 4.0725 17.1895 3.96237 17.7622C3.90379 18.2687 3.26574 18.5582 2.84548 18.2708C2.39444 18.0099 2.41107 17.267 2.87769 17.0292ZM12.5556 18.0895C13.1969 17.8065 14.0139 18.3648 13.9532 19.0712C14.0007 19.8517 12.9902 20.3922 12.3632 19.9235C11.6667 19.521 11.7828 18.337 12.5556 18.0895ZM8.07315 19.1352C8.61938 18.8478 9.35237 19.3442 9.30263 19.9555C9.31925 20.4574 8.82938 20.8852 8.33406 20.811C7.9238 20.8022 7.65627 20.4344 7.52471 20.0847C7.53146 19.7035 7.68834 19.279 8.07315 19.1352ZM17.1529 19.144C17.7146 18.7969 18.5129 19.2954 18.4598 19.9492C18.4742 20.6325 17.572 21.0701 17.049 20.6213C16.5426 20.2695 16.6045 19.4238 17.1529 19.144ZM18.7319 23.0475C18.482 22.6695 18.7761 22.214 19.1819 22.1278C19.5081 22.1942 19.853 22.4395 19.7845 22.8177C19.7369 23.3295 18.9884 23.4865 18.7319 23.0475ZM6.19795 22.7192C6.29743 22.4196 6.53847 22.1218 6.8912 22.1997C7.40536 22.2362 7.55795 23.0112 7.10795 23.25C6.70328 23.5229 6.2338 23.1492 6.19795 22.7192ZM12.2448 23.063C12.3433 22.6197 12.917 22.4042 13.2952 22.6396C13.5451 22.7469 13.6181 23.0265 13.6822 23.2642C13.648 23.3879 13.6173 23.5118 13.5872 23.6356C13.4324 23.8191 13.2334 24.0026 12.9757 23.996C12.4969 24.0521 12.065 23.5108 12.2448 23.063Z" fill="#141414"/>
</svg>
